<svg xmlns="http://www.w3.org/2000/svg" width="32" height="32" fill="none" viewBox="0 0 32 32">
  <path fill="#535358" d="M17.25 23.75a1.25 1.25 0 11-2.5 0 1.25 1.25 0 012.5 0z"/>
  <path stroke="#535358" stroke-linecap="round" stroke-linejoin="round" stroke-width="2" d="M14 17.462a2 2 0 112 2V20.5"/>
  <path stroke="#535358" stroke-linejoin="round" stroke-width="2" d="M5 8a2 2 0 012-2h18a2 2 0 012 2v18a2 2 0 01-2 2H7a2 2 0 01-2-2V8z"/>
  <path stroke="#535358" stroke-linecap="round" stroke-linejoin="round" stroke-width="2" d="M5 12h22M21 8V4M11 8V4"/>
</svg>
