<svg xmlns="http://www.w3.org/2000/svg" width="32" height="32" fill="none" viewBox="0 0 32 32">
  <path fill="#535358" d="M21.5 11v-1a1 1 0 00-.962.725L21.5 11zm5.5 0h1a.999.999 0 00-.106-.447L27 11zM5 11l-.894-.447A1 1 0 004 11h1zm5.5 0l.961-.275A1 1 0 0010.5 10v1zM5 19H4a1 1 0 001 1v-1zm22 0v1a1 1 0 001-1h-1zM8 5V4a1 1 0 00-.894.553L8 5zm16 0l.894-.447A1 1 0 0024 4v1zm2 9.5a1 1 0 102 0h-2zM4 14a1 1 0 102 0H4zm0-1v11h2V13H4zm0 11c0 1.075.528 2.067 1.23 2.77C5.933 27.473 6.925 28 8 28v-2c-.425 0-.933-.223-1.355-.645C6.222 24.933 6 24.425 6 24H4zm4 4h16v-2H8v2zm16 0c1.075 0 2.067-.527 2.77-1.23.703-.703 1.23-1.695 1.23-2.77h-2c0 .425-.223.933-.645 1.355-.422.422-.93.645-1.355.645v2zm4-4V13h-2v11h2zm-12-8.5c2.547 0 4.182-1.005 5.17-2.07.484-.52.8-1.041.998-1.436a5.28 5.28 0 00.285-.691 1.307 1.307 0 00.007-.023v-.003l.001-.001L21.5 11a87.01 87.01 0 01-.961-.276v-.003l.001-.002v-.002l-.002.01a3.259 3.259 0 01-.159.373c-.13.261-.346.615-.674.97-.637.685-1.752 1.43-3.705 1.43v2zm5.5-3.5H27v-2h-5.5v2zM5 12h5.5v-2H5v2zm5.5-1a78.07 78.07 0 00-.961.276v.004l.003.006a1.573 1.573 0 00.02.066c.013.038.03.09.054.152.047.124.117.292.216.49a6.2 6.2 0 00.998 1.437c.988 1.064 2.623 2.069 5.17 2.069v-2c-1.953 0-3.068-.745-3.705-1.43a4.196 4.196 0 01-.674-.97 3.259 3.259 0 01-.162-.383v.002l.001.002v.002l.001.001L10.5 11zM16 21.5c-2.236 0-3.323-.768-3.866-1.4a3.104 3.104 0 01-.543-.91 2.405 2.405 0 01-.102-.338v-.006.011s0 .002-.989.143a68.748 68.748 0 00-.99.144.23.23 0 000 .004l.002.007a1.565 1.565 0 00.012.071 4.387 4.387 0 00.197.676c.158.414.43.957.895 1.499.957 1.117 2.62 2.099 5.384 2.099v-2zM10.5 18H5v2h5.5v-2zM27 18h-5.5v2H27v-2zm-5.5 1a76.41 76.41 0 01-.99-.144v-.002l.001-.004a.1.1 0 010-.004v.006l-.014.06c-.014.06-.042.158-.088.279a3.104 3.104 0 01-.543.908c-.543.633-1.63 1.401-3.866 1.401v2c2.764 0 4.427-.982 5.384-2.1a5.101 5.101 0 00.894-1.497 4.36 4.36 0 00.207-.73.946.946 0 00.003-.018l.001-.008v-.003-.001s0-.002-.989-.143zm4.5-8v8h2v-8h-2zM6 19v-8H4v8h2zM8 6h16V4H8v2zm15.106-.553l3 6 1.788-.894-3-6-1.788.894zM26 11v3.5h2V11h-2zM7.106 4.553l-3 6 1.788.894 3-6-1.788-.894zM4 11v3h2v-3H4zm6.5 9h11v-2h-11v2z"/>
</svg>
