<svg xmlns="http://www.w3.org/2000/svg" width="32" height="32" fill="none" viewBox="0 0 32 32">
  <path stroke="#535358" stroke-linecap="round" stroke-linejoin="round" stroke-width="2" d="M14 22.05c-5.12.256-9 1.48-9 2.95 0 1.657 4.925 3 11 3s11-1.343 11-3c0-1.47-3.88-2.694-9-2.95m-4 0a40.015 40.015 0 014 0m-4 0V23a2 2 0 104 0v-.95"/>
  <path stroke="#535358" stroke-linecap="round" stroke-linejoin="round" stroke-width="2" d="M5 25c0-2 .2-6.2 3-9 2.986-2.986.513-7.427 5-8.668M27 25c0-2-.2-6.2-3-9-2.986-2.986-.513-7.427-5-8.668m-6 0C13.773 7.12 14.751 7 16 7s2.227.119 3 .332m-6 0V7a3 3 0 016 0v.332"/>
</svg>
