<svg xmlns="http://www.w3.org/2000/svg" width="32" height="32" fill="none" viewBox="0 0 32 32">
  <path fill="#535358" d="M27 12h1-1zm0 10h-1 1zM5 22h1-1zm0-10H4h1zm17 11a1 1 0 100 2v-2zm-12 2a1 1 0 100-2v2zm16-13v10h2V12h-2zM6 22V12H4v10h2zm1-11h18V9H7v2zm18 12h-3v2h3v-2zm-15 0H7v2h3v-2zm-6-1a3 3 0 003 3v-2a1 1 0 01-1-1H4zm22 0a1 1 0 01-1 1v2a3 3 0 003-3h-2zm2-10a3 3 0 00-3-3v2a1 1 0 011 1h2zM6 12a1 1 0 011-1V9a3 3 0 00-3 3h2z"/>
  <path stroke="#535358" stroke-linecap="round" stroke-linejoin="round" stroke-width="2" d="M10 10V5h12v5M9 17h14M10 17v10h12V17"/>
</svg>
