<svg xmlns="http://www.w3.org/2000/svg" width="32" height="32" fill="none" viewBox="0 0 32 32">
  <path stroke="#535358" stroke-linecap="round" stroke-width="2" d="M7.5 20.5l5.328 5.328A4 4 0 0015.657 27H21a4 4 0 004-4v-5.888c0-.682-.385-1.304-.994-1.61a2.249 2.249 0 00-2.012 0l-.666.334a.454.454 0 01-.557-.122l-.398-.497a1.759 1.759 0 00-2.747 0 .352.352 0 01-.626-.22V7a2 2 0 10-4 0v12.052c0 .35-.423.525-.67.278L10.5 17.5a2.121 2.121 0 00-3 3z"/>
  <path stroke="#535358" stroke-linecap="round" stroke-width="2" d="M15 8c-2 2-6.4 5.6-8 4-3.5-3.5 4.667-3.333 8-4zm0 0c2.833 0 12-1 8.5 2.5C21 13 17.833 9.667 15 8z"/>
</svg>
