<svg xmlns="http://www.w3.org/2000/svg" width="32" height="32" fill="none" viewBox="0 0 32 32">
  <path fill="#535358" d="M23.363 5.286l.567-.824-.567.824zm-9.228-2.151l.143.99-.143-.99zM5.897 7.819l-.777-.63.777.63zm-2.87 9.031l-.997.066.998-.066zm22.34 9.554a1 1 0 10-1.337-1.486l1.338 1.486zM22 10.5a1 1 0 10-2 0h2zm-.744 9.896l.8-.6-.8.6zM24.5 22v1-1zM20 16a5 5 0 01-5 5v2a7 7 0 007-7h-2zm-5 5a5 5 0 01-5-5H8a7 7 0 007 7v-2zm-5-5a5 5 0 015-5V9a7 7 0 00-7 7h2zm5-5a5 5 0 015 5h2a7 7 0 00-7-7v2zm14.657 1.919c-.735-3.386-2.827-6.463-5.727-8.457l-1.133 1.649c2.491 1.712 4.281 4.356 4.905 7.232l1.955-.424zM23.93 4.462a14 14 0 00-9.939-2.317l.287 1.98a12 12 0 018.519 1.986l1.133-1.649zM13.99 2.145A14 14 0 005.12 7.19l1.554 1.258a12 12 0 017.604-4.324l-.287-1.98zM5.12 7.19a14 14 0 00-3.09 9.726l1.996-.131a12 12 0 012.648-8.337L5.12 7.19zm-3.09 9.726a14 14 0 004.333 9.24l1.377-1.451a12 12 0 01-3.714-7.92l-1.996.13zm4.333 9.24a14 14 0 009.454 3.843l.026-2a12 12 0 01-8.103-3.294l-1.377 1.45zm9.454 3.843a14 14 0 009.55-3.595l-1.337-1.486a12 12 0 01-8.187 3.081l-.026 2zM20 10.5v9.028h2V10.5h-2zm.456 10.495c.54.721 1.823 2.005 4.044 2.005v-2a2.97 2.97 0 01-2.444-1.204l-1.6 1.2zM20 19.529c0 .449.1.992.456 1.468l1.6-1.2c-.016-.022-.056-.096-.056-.268h-2zM24.5 23c1.357 0 2.465-.44 3.314-1.2.83-.744 1.354-1.737 1.673-2.764.632-2.034.535-4.434.17-6.117l-1.955.424c.314 1.447.378 3.482-.125 5.1-.248.8-.616 1.436-1.097 1.866-.462.414-1.087.691-1.98.691v2z"/>
</svg>
