<svg xmlns="http://www.w3.org/2000/svg" width="32" height="32" fill="none" viewBox="0 0 32 32">
  <path stroke="#535358" stroke-width="2" d="M12.225 16.293c0 6.8 4 9 5 9 3.5 0 2-5.293 3.5-6.793s5-.707 5-4.207-2-5-5-5c-5 0-8.5 1.5-8.5 7z"/>
  <circle cx="16" cy="16" r="13" stroke="#535358" stroke-linejoin="round" stroke-width="2"/>
  <path stroke="#535358" stroke-width="2" d="M21.5 4.5c0 1.167-1.735 1.5-3 1.5-5.217 0-10.705 3.48-11.421 8.004C6.992 14.549 6.552 15 6 15H3M4 20.5c.785.262 2.126 1.285 3.44 1.517.57.101 1.153.464 1.299 1.023.303 1.16.548 1.992-.239 3.96"/>
</svg>
