<svg xmlns="http://www.w3.org/2000/svg" width="32" height="32" fill="none" viewBox="0 0 32 32">
  <path stroke="#535358" stroke-linecap="round" stroke-linejoin="round" stroke-width="2" d="M15 16a1 1 0 112 0 1 1 0 01-2 0z" clip-rule="evenodd"/>
  <path fill="#535358" fill-rule="evenodd" d="M6 16h6c0 1.48.804 2.773 2 3.465l-3 5.197A9.996 9.996 0 016 16zm12 3.465l3 5.197c2.99-1.73 5-4.96 5-8.662h-6c0 1.48-.804 2.773-2 3.465zm-4-6.93A3.982 3.982 0 0116 12c.729 0 1.412.195 2 .535l3-5.197A9.954 9.954 0 0016 6c-1.822 0-3.53.487-5 1.338l3 5.197z" clip-rule="evenodd"/>
  <path stroke="#535358" stroke-linecap="round" stroke-linejoin="round" stroke-width="2" d="M29 16a13 13 0 11-26 0 13 13 0 0126 0h0z"/>
</svg>
