<svg xmlns="http://www.w3.org/2000/svg" width="32" height="32" fill="none" viewBox="0 0 32 32">
  <path stroke="#535358" stroke-linecap="round" stroke-linejoin="round" stroke-width="2" d="M16 22h-3.621c-.252 0-.504-.022-.752-.067l-.92-.164c-3.383-.604-5.245-3.076-5.62-5.769-.484-3.466 1.494-7.3 5.861-7.992a.113.113 0 00.08-.053l.636-1.049C13.44 3.982 16.582 3.56 19 4.687c2.378 1.11 4.055 3.722 3.037 6.93a.11.11 0 00.084.142c2.952.586 4.372 3.143 4.173 5.567a5.188 5.188 0 01-.915 2.566c-1.353 1.92-4.028 2.1-6.377 2.115-1 .006-2-.007-3.002-.007z"/>
  <path stroke="#535358" stroke-linecap="round" stroke-linejoin="round" stroke-width="2" d="M14.5 22l-.5 6h4l-.5-6h-3z"/>
</svg>
