<svg xmlns="http://www.w3.org/2000/svg" width="32" height="32" fill="none" viewBox="0 0 32 32">
  <path fill="#535358" d="M5 5.015v-1a1 1 0 00-1 1h1zm8 1a1 1 0 100-2v2zM4 13a1 1 0 102 0H4zm23-7.985h1a1 1 0 00-1-1v1zM26 13a1 1 0 102 0h-2zm-7-8.985a1 1 0 100 2v-2zm-13.293.278a1 1 0 00-1.414 1.414l1.414-1.414zm22 1.414a1 1 0 00-1.414-1.414l1.414 1.414zM15 27a1 1 0 102 0h-2zm-4-1a1 1 0 100 2v-2zm10 2a1 1 0 100-2v2zM5 6.015h8v-2H5v2zm-1-1V13h2V5.015H4zm22 0V13h2V5.015h-2zm1-1h-8v2h8v-2zM16.707 15.293l-11-11-1.414 1.414 11 11 1.414-1.414zm0 1.414l11-11-1.414-1.414-11 11 1.414 1.414zM17 27V16h-2v11h2zm-6 1h10v-2H11v2z"/>
</svg>
