<svg xmlns="http://www.w3.org/2000/svg" width="32" height="32" fill="none" viewBox="0 0 32 32">
  <path stroke="#535358" stroke-linecap="round" stroke-linejoin="round" stroke-width="2" d="M15.546 4.984a.5.5 0 01.908 0l3.097 6.714a.5.5 0 00.395.287l7.341.87a.5.5 0 01.28.864l-5.427 5.02a.5.5 0 00-.15.464l1.44 7.251a.5.5 0 01-.735.534l-6.45-3.611a.5.5 0 00-.49 0l-6.45 3.61a.5.5 0 01-.735-.533l1.44-7.251a.5.5 0 00-.15-.465l-5.428-5.02a.5.5 0 01.28-.863l7.342-.87a.5.5 0 00.396-.287l3.096-6.714z"/>
</svg>
