<svg xmlns="http://www.w3.org/2000/svg" width="32" height="32" fill="none" viewBox="0 0 32 32">
  <path stroke="#201F2D" stroke-linecap="round" stroke-linejoin="round" stroke-width="2" d="M27 7H5a2 2 0 00-2 2v14a2 2 0 002 2h22a2 2 0 002-2V9a2 2 0 00-2-2z"/>
  <path stroke="#201F2D" stroke-linecap="round" stroke-linejoin="round" stroke-width="2" d="M7 13l3 6.5 3-6.5M16.5 13v6.5M20.5 17.275h1.48c.651 0 1.277-.275 1.721-.75a2.338 2.338 0 00.215-2.932 1.394 1.394 0 00-1.14-.593H20.5v4.275zm0 0V19.5"/>
</svg>
